<?xml version="1.0" encoding="UTF-8" standalone="no"?>
<svg width="21px" height="24px" viewBox="0 0 21 24" version="1.1" xmlns="http://www.w3.org/2000/svg" xmlns:xlink="http://www.w3.org/1999/xlink">
    <!-- Generator: Sketch 41 (35326) - http://www.bohemiancoding.com/sketch -->
    <title>coffee</title>
    <desc>Created with Sketch.</desc>
    <defs></defs>
    <g id="Page-1" stroke="none" stroke-width="1" fill="none" fill-rule="evenodd">
        <g id="Merchant_ID_transactions" transform="translate(-381.000000, -248.000000)" fill="#000000">
            <g id="Group-4" transform="translate(350.000000, 135.000000)">
                <g id="1" transform="translate(0.000000, 101.300000)">
                    <g id="coffee" transform="translate(31.000000, 11.073333)">
                        <path d="M18.4404,19.376875 C18.2402,19.376875 18.039,19.353397 17.8398,19.304334 C17.1591,19.138784 16.5839,18.7076517 16.2207,18.091304 C16.0801,17.853213 16.1592,17.545591 16.3975,17.404422 C16.6319,17.2633533 16.9405,17.3417137 17.0821,17.5818113 C17.3067,17.9619743 17.6592,18.2284597 18.0762,18.329395 C18.4815,18.429327 18.9004,18.3587927 19.2549,18.1344473 C20.0117,17.657262 20.251,16.6294473 19.7881,15.8426333 C19.5645,15.4624703 19.211,15.196888 18.7949,15.0950497 C18.3896,14.9951177 17.9707,15.0646487 17.6142,15.2910007 C17.3837,15.437989 17.0742,15.3683577 16.9247,15.1322733 C16.7782,14.8980953 16.8485,14.5884667 17.0829,14.440475 C17.6698,14.0710477 18.3602,13.956467 19.0302,14.1201107 C19.7118,14.2856607 20.2861,14.716793 20.6493,15.3331407 C21.3847,16.582391 20.9979,18.2206337 19.787,18.9839697 C19.376,19.2436323 18.9121,19.376875 18.4404,19.376875 L18.4404,19.376875 Z" id="Shape"></path>
                        <path d="M9.0303,24.1437117 C4.0669,24.1437117 0.0288,18.961495 0.0288,12.5907297 C0.0288,12.3134083 0.2524,12.089063 0.5288,12.089063 L17.5312,12.089063 C17.8076,12.089063 18.0312,12.3134083 18.0312,12.5907297 C18.0312,18.9613947 13.9932,24.1437117 9.0303,24.1437117 L9.0303,24.1437117 Z M1.0376,13.092296 C1.2373,18.6772507 4.7461,23.140278 9.0303,23.140278 C13.3145,23.140278 16.8233,18.6772507 17.0225,13.092296 L1.0376,13.092296 L1.0376,13.092296 Z" id="Shape"></path>
                        <path d="M7.9082,9.986277 C7.8921,9.986277 7.876,9.98577533 7.8599,9.983869 C7.5186,9.95106 6.854,9.71878833 6.5308,9.05698967 C6.1011,8.177568 6.4224,6.87584333 7.4849,5.18913967 C8.7188,3.23143567 8.6953,2.30696433 8.5713,1.93071433 C8.4775,1.64657033 8.2925,1.56720667 8.272,1.55938067 C8.0205,1.46185667 7.8823,1.178716 7.9707,0.923969667 C8.0581,0.66822 8.3223,0.526148 8.5806,0.60501 C8.646,0.625076667 9.23,0.824037667 9.4986,1.55295933 C9.857,2.522982 9.4639,3.92704667 8.3306,5.72502 C7.1616,7.57988233 7.3076,8.35836867 7.4248,8.60669367 C7.5786,8.933981 7.9468,8.983947 7.9624,8.98585333 C8.2334,9.02016733 8.4307,9.266586 8.4009,9.53949267 C8.3726,9.795744 8.1597,9.986277 7.9082,9.986277 L7.9082,9.986277 Z" id="Shape"></path>
                        <path d="M11.2227,9.986277 C11.2061,9.986277 11.1905,9.98577533 11.1739,9.983869 C11.1085,9.977548 10.5225,9.90550867 10.2442,9.33571567 C9.96,8.75468533 10.1417,7.96496167 10.7989,6.92189633 C11.4766,5.846022 11.4317,5.38408733 11.4014,5.26800167 C11.3809,5.19064467 11.3477,5.169073 11.3409,5.16556133 C11.0772,5.08378967 10.9454,4.809378 11.0264,4.544799 C11.1084,4.28022 11.4053,4.138148 11.668,4.218515 C11.8838,4.28513633 12.1866,4.50065233 12.3301,4.88964467 C12.5615,5.51773133 12.3369,6.35792267 11.6446,7.45777667 C10.9854,8.50425333 11.1241,8.85742667 11.1417,8.89414867 C11.1759,8.96418133 11.2687,8.98525133 11.2696,8.98525133 C11.544,9.01173933 11.7462,9.256653 11.7198,9.53246933 C11.6943,9.79233267 11.4766,9.986277 11.2227,9.986277 L11.2227,9.986277 Z" id="Shape"></path>
                        <path d="M17.4951,24.1437117 L0.5444,24.1437117 C0.268,24.1437117 0.0444,23.9193663 0.0444,23.642045 C0.0444,23.3647237 0.268,23.1403783 0.5444,23.1403783 L17.4951,23.1403783 C17.7715,23.1403783 17.9951,23.3647237 17.9951,23.642045 C17.9951,23.9193663 17.7715,24.1437117 17.4951,24.1437117 L17.4951,24.1437117 Z" id="Shape"></path>
                    </g>
                </g>
            </g>
        </g>
    </g>
</svg>