<?xml version="1.0" encoding="UTF-8" standalone="no"?>
<svg width="26px" height="23px" viewBox="0 0 26 23" version="1.1" xmlns="http://www.w3.org/2000/svg" xmlns:xlink="http://www.w3.org/1999/xlink">
    <!-- Generator: Sketch 41 (35326) - http://www.bohemiancoding.com/sketch -->
    <title>fastfood</title>
    <desc>Created with Sketch.</desc>
    <defs></defs>
    <g id="Page-1" stroke="none" stroke-width="1" fill="none" fill-rule="evenodd">
        <g id="Merchant_ID_transactions" transform="translate(-377.000000, -394.000000)" fill="#000000">
            <g id="Group-4" transform="translate(350.000000, 135.000000)">
                <g id="1" transform="translate(0.000000, 245.780000)">
                    <g id="fastfood" transform="translate(27.000000, 14.080000)">
                        <path d="M23.3506,10.045496 L2.6318,10.045496 C2.3554,10.045496 2.1318,9.82115067 2.1318,9.54382933 C2.1318,4.297901 7.0034,0.0298213333 12.9912,0.0298213333 C18.9795,0.0298213333 23.8506,4.297901 23.8506,9.54382933 C23.8506,9.82115067 23.627,10.045496 23.3506,10.045496 L23.3506,10.045496 Z M3.1489,9.04216267 L22.834,9.04216267 C22.5322,4.582045 18.2324,1.03315467 12.9912,1.03315467 C7.75,1.03315467 3.4507,4.582045 3.1489,9.04216267 L3.1489,9.04216267 Z" id="Shape"></path>
                        <path d="M20.751,22.081583 L5.2314,22.081583 C3.5224,22.081583 2.1318,20.65394 2.1318,18.89911 L2.1318,18.5699163 C2.1318,18.292595 2.3554,18.0682497 2.6318,18.0682497 L23.3506,18.0682497 C23.627,18.0682497 23.8506,18.292595 23.8506,18.5699163 L23.8506,18.89911 C23.8506,20.65394 22.46,22.081583 20.751,22.081583 L20.751,22.081583 Z M3.1382,19.071583 C3.2232,20.192507 4.1294,21.0782497 5.2315,21.0782497 L20.751,21.0782497 C21.8526,21.0782497 22.7588,20.192507 22.8438,19.071583 L3.1382,19.071583 L3.1382,19.071583 Z" id="Shape"></path>
                        <path d="M23.5547,19.071583 L2.4272,19.071583 C1.6225,19.071583 0.9677,18.4327607 0.9677,17.6479533 L0.9677,16.4819797 C0.9677,15.6971723 1.6225,15.05835 2.4272,15.05835 L23.5546,15.05835 C24.3593,15.05835 25.0146,15.6971723 25.0146,16.4819797 L25.0146,17.6479533 C25.0146,18.4327607 24.3594,19.071583 23.5547,19.071583 L23.5547,19.071583 Z M2.4272,16.061583 C2.1738,16.061583 1.9677,16.249708 1.9677,16.4818793 L1.9677,17.647853 C1.9677,17.8800243 2.1738,18.0681493 2.4272,18.0681493 L23.5546,18.0681493 C23.8085,18.0681493 24.0146,17.8800243 24.0146,17.647853 L24.0146,16.4818793 C24.0146,16.249708 23.8085,16.061583 23.5546,16.061583 L2.4272,16.061583 L2.4272,16.061583 Z" id="Shape"></path>
                        <path d="M22.1631,13.981372 C22.0391,13.981372 21.9151,13.935319 21.8184,13.843213 L20.3038,12.396005 L18.7892,13.843213 C18.5958,14.027425 18.2931,14.027425 18.0997,13.843213 L16.5851,12.396005 L15.1261,13.7912403 C14.9327,13.9754523 14.63,13.9754523 14.4366,13.7912403 L12.922,12.343029 L11.4078,13.7912403 C11.2154,13.9754523 10.9107,13.9754523 10.7183,13.7912403 L9.208,12.3470423 L7.7217,13.7677623 C7.5283,13.9519743 7.2256,13.9519743 7.0322,13.7677623 L5.5176,12.3205543 L4.0034,13.7677623 C3.811,13.9519743 3.5073,13.9519743 3.3139,13.7677623 L1.4545,11.9913607 C1.2543,11.800326 1.2465,11.4828713 1.4369,11.282004 C1.6283,11.0811367 1.9452,11.075217 2.1439,11.2643453 L3.6585,12.7115533 L5.1727,11.2643453 C5.3651,11.0801333 5.6688,11.0801333 5.8622,11.2643453 L7.377,12.7115533 L8.836,11.3173213 C8.9219,11.2036437 9.0367,11.146855 9.1788,11.135116 C9.3165,11.1331093 9.4449,11.1879917 9.5484,11.2870207 L11.063,12.735232 L12.5772,11.2870207 C12.7696,11.1028087 13.0733,11.1028087 13.2667,11.2870207 L14.7813,12.735232 L16.2403,11.3399967 C16.4337,11.1557847 16.7364,11.1557847 16.9298,11.3399967 L18.4444,12.7872047 L19.959,11.3399967 C20.1524,11.1557847 20.4551,11.1557847 20.6485,11.3399967 L22.1631,12.7872047 L23.6221,11.3929727 C23.8213,11.202841 24.1377,11.2087607 24.3291,11.4106313 C24.5195,11.6114987 24.5117,11.9289533 24.3115,12.119988 L22.5078,13.843514 C22.4111,13.935319 22.2871,13.981372 22.1631,13.981372 L22.1631,13.981372 Z" id="Shape"></path>
                        <path d="M10.6704,4.09603033 L10.4043,4.09603033 C10.1279,4.09603033 9.9043,3.871685 9.9043,3.59436367 C9.9043,3.31704233 10.1279,3.092697 10.4043,3.092697 L10.6704,3.092697 C10.9468,3.092697 11.1704,3.31704233 11.1704,3.59436367 C11.1704,3.871685 10.9468,4.09603033 10.6704,4.09603033 L10.6704,4.09603033 Z" id="Shape"></path>
                        <path d="M13.6416,6.03998867 L13.376,6.03998867 C13.0996,6.03998867 12.876,5.81564333 12.876,5.538322 C12.876,5.26100067 13.0996,5.03665533 13.376,5.03665533 L13.6416,5.03665533 C13.918,5.03665533 14.1416,5.26100067 14.1416,5.538322 C14.1416,5.81564333 13.918,6.03998867 13.6416,6.03998867 L13.6416,6.03998867 Z" id="Shape"></path>
                        <path d="M15.6338,4.09603033 L15.3682,4.09603033 C15.0918,4.09603033 14.8682,3.871685 14.8682,3.59436367 C14.8682,3.31704233 15.0918,3.092697 15.3682,3.092697 L15.6338,3.092697 C15.9102,3.092697 16.1338,3.31704233 16.1338,3.59436367 C16.1338,3.871685 15.9102,4.09603033 15.6338,4.09603033 L15.6338,4.09603033 Z" id="Shape"></path>
                    </g>
                </g>
            </g>
        </g>
    </g>
</svg>