<?xml version="1.0" encoding="UTF-8" standalone="no"?>
<svg width="24px" height="24px" viewBox="0 0 24 24" version="1.1" xmlns="http://www.w3.org/2000/svg" xmlns:xlink="http://www.w3.org/1999/xlink">
    <!-- Generator: Sketch 41.2 (35397) - http://www.bohemiancoding.com/sketch -->
    <title>restaurant</title>
    <desc>Created with Sketch.</desc>
    <defs></defs>
    <g id="Page-1" stroke="none" stroke-width="1" fill="none" fill-rule="evenodd">
        <g id="restaurant" transform="translate(0.000000, -1.000000)">
            <g id="Layer_1">
                <g id="Group" transform="translate(1.000000, 1.000000)" stroke="#000000">
                    <path d="M4.4924,16.4899 C4.5856,16.3901 7.283,14.0096 8.091,12.7014 C8.8907,11.4071 9.1307,9.5422 8.8051,7.1665 C8.5302,5.161 7.8994,1.5197 7.8994,1.5197 L1.0854,1.5197 C1.0854,1.5197 0.4546,5.1605 0.1797,7.1665 C-0.1458,9.5422 0.0947,11.4045 0.8938,12.6996 C1.7015,14.0079 4.399,16.3901 4.4924,16.4899" id="Shape"></path>
                    <path d="M4.5,16.4899 L4.5,22.5197" id="Shape"></path>
                    <path d="M0.4832,22.5197 L8.5256,22.5197" id="Shape"></path>
                    <path d="M0.0391,9.5197 L8.9371,9.5197" id="Shape"></path>
                    <path d="M19.5003,9.8853 C19.5003,10.9763 20.1077,11.4154 20.8577,11.4154 C21.6075,11.4154 22.2152,11.447 22.2152,10.3555 L21.5379,2.4948 C21.4545,1.3186 21.0958,0.7807 20.346,0.7807 C19.2589,0.7808 19.5003,2.0041 19.5003,9.8853 L19.5003,9.8853 Z" id="Shape"></path>
                    <path d="M14.5,9.5825 L14.5,22.5197" id="Shape"></path>
                    <path d="M14.5,2.4858 L14.5,6.4858" id="Shape"></path>
                    <path d="M19.5003,2.4858 L19.5003,22.5747" id="Shape"></path>
                    <path d="M16.5,2.4858 L16.5,6.4858" id="Shape"></path>
                    <path d="M12.5,2.4858 L12.5,6.4858" id="Shape"></path>
                    <path d="M14.4693,9.5825 L14.5035,9.5825 C13.3781,9.5825 12.5,8.6702 12.5,7.5449 L12.5,6.5197 L16.5,6.5197 L16.5,7.5448 C16.5,8.6702 15.5947,9.5825 14.4693,9.5825 L14.4693,9.5825 Z" id="Shape"></path>
                </g>
                <rect id="Rectangle-path" x="0" y="0.0197" width="24" height="24"></rect>
            </g>
        </g>
    </g>
</svg>