<?xml version="1.0" encoding="UTF-8" standalone="no"?>
<svg width="20px" height="25px" viewBox="0 0 20 25" version="1.1" xmlns="http://www.w3.org/2000/svg" xmlns:xlink="http://www.w3.org/1999/xlink">
    <!-- Generator: Sketch 41.2 (35397) - http://www.bohemiancoding.com/sketch -->
    <title>shopping</title>
    <desc>Created with Sketch.</desc>
    <defs></defs>
    <g id="Page-1" stroke="none" stroke-width="1" fill="none" fill-rule="evenodd">
        <g id="shopping" transform="translate(-4.000000, 0.000000)">
            <g id="Layer_1">
                <g id="Group" transform="translate(4.000000, 0.000000)" stroke="#000000">
                    <path d="M19.4198,15.3148 L14.6929,10.6332 C14.6279,10.5689 14.5404,10.5328 14.4487,10.5334 L14.1977,10.5343 L10.6208,10.5513 C10.424,10.5542 10.2762,10.7124 10.2771,10.8987 C10.2782,11.1339 10.2318,14.8034 10.3978,14.9701 C10.4733,15.0449 15.1297,19.6754 15.227,19.7183 C15.2984,19.7511 15.3825,19.7605 15.4612,19.7385 C15.4994,19.7278 15.5714,19.6908 15.6129,19.6489 L19.4218,15.8034 C19.5566,15.6677 19.5554,15.4487 19.4198,15.3148 L19.4198,15.3148 Z" id="Shape"></path>
                    <circle id="Oval" cx="12.3516" cy="12.6778" r="0.7835"></circle>
                    <polyline id="Shape" points="15.5135 21.5732 15.5135 23.5418 0.5265 23.5418 0.5265 5.5544 15.5135 5.5544 15.5135 8.3617"></polyline>
                    <path d="M11.4864,7.5231 L11.4864,4.1891 C11.4864,2.2527 10.0119,0.5 8.0754,0.5 L8.0142,0.5 C6.0778,0.5 4.4863,2.2527 4.4863,4.1891 L4.4863,7.523" id="Shape"></path>
                </g>
                <rect id="Rectangle-path" x="0.9864" y="0" width="24" height="24"></rect>
            </g>
        </g>
    </g>
</svg>